# Made in Blockbench 5.0.4
mtllib sword.mtl

o cube
v 0.031250000000000056 -0.2489151910290978 -0.01239942327591683
v 0.031250000000000056 -0.24348868547700622 -0.043174665557548335
v -0.031249999999999944 -0.2489151910290978 -0.01239942327591683
v -0.031249999999999944 -0.24348868547700622 -0.043174665557548335
v 0.03125 0.0027132527760457934 0.00023737885918424968
v 0.03125 -0.0027132527760457795 0.031012621140815752
v -0.03125 0.0027132527760457795 0.00023737885918424968
v -0.03125 -0.0027132527760457934 0.031012621140815752
vt 0.125 0.875
vt 0.375 0.875
vt 0.375 0.8125
vt 0.125 0.8125
vt 0.125 0.875
vt 0.125 0.875
vt 0.125 0.8125
vt 0.125 0.8125
vt 0.375 0.875
vt 0.625 0.875
vt 0.625 0.8125
vt 0.375 0.8125
vt 0.375 0.875
vt 0.375 0.875
vt 0.375 0.8125
vt 0.375 0.8125
vt 0.375 0.875
vt 0.125 0.875
vt 0.125 0.875
vt 0.375 0.875
vt 0.625 0.875
vt 0.375 0.875
vt 0.375 0.875
vt 0.625 0.875
vn -3.855764100600519e-17 0.17364817766693033 -0.984807753012208
vn 2.1867124844470354e-16 -0.984807753012208 -0.17364817766693033
vn 3.855764100600519e-17 -0.17364817766693033 0.984807753012208
vn -2.1867124844470354e-16 0.984807753012208 0.17364817766693033
vn 1 2.220446049250313e-16 0
vn -1 -2.220446049250313e-16 0
usemtl none
f 4/4/1 7/3/1 5/2/1 2/1/1
f 3/8/2 4/7/2 2/6/2 1/5/2
f 8/12/3 3/11/3 1/10/3 6/9/3
f 7/16/4 8/15/4 6/14/4 5/13/4
f 6/20/5 1/19/5 2/18/5 5/17/5
f 7/24/6 4/23/6 3/22/6 8/21/6
o cube
v 0.03125 0.0027132527760457934 0.031012621140815752
v 0.03125 -0.0027132527760457795 0.00023737885918424968
v -0.03125 0.0027132527760457795 0.031012621140815752
v -0.03125 -0.0027132527760457934 0.00023737885918424968
v 0.031249999999999944 0.24348868547700622 -0.043174665557548335
v 0.031249999999999944 0.2489151910290978 -0.01239942327591683
v -0.031250000000000056 0.24348868547700622 -0.043174665557548335
v -0.031250000000000056 0.2489151910290978 -0.01239942327591683
vt 0.375 0.875
vt 0.125 0.875
vt 0.125 0.8125
vt 0.375 0.8125
vt 0.375 0.875
vt 0.375 0.875
vt 0.375 0.8125
vt 0.375 0.8125
vt 0.625 0.875
vt 0.375 0.875
vt 0.375 0.8125
vt 0.625 0.8125
vt 0.125 0.875
vt 0.125 0.875
vt 0.125 0.8125
vt 0.125 0.8125
vt 0.125 0.875
vt 0.375 0.875
vt 0.375 0.875
vt 0.125 0.875
vt 0.375 0.875
vt 0.625 0.875
vt 0.625 0.875
vt 0.375 0.875
vn 3.855764100600519e-17 -0.17364817766693033 -0.984807753012208
vn 2.1867124844470354e-16 -0.984807753012208 0.17364817766693033
vn -3.855764100600519e-17 0.17364817766693033 0.984807753012208
vn -2.1867124844470354e-16 0.984807753012208 -0.17364817766693033
vn 1 2.220446049250313e-16 0
vn -1 -2.220446049250313e-16 0
usemtl none
f 12/28/7 15/27/7 13/26/7 10/25/7
f 11/32/8 12/31/8 10/30/8 9/29/8
f 16/36/9 11/35/9 9/34/9 14/33/9
f 15/40/10 16/39/10 14/38/10 13/37/10
f 14/44/11 9/43/11 10/42/11 13/41/11
f 15/48/12 12/47/12 11/46/12 16/45/12
o cube
v 0.03125000000000008 -0.37146437019461537 -0.06464981135014736
v 0.03125000000000008 -0.3595055129332063 -0.09352104674112507
v -0.03124999999999992 -0.37146437019461537 -0.06464981135014736
v -0.03124999999999992 -0.3595055129332063 -0.09352104674112507
v 0.031250000000000056 -0.24402057136929547 -0.04568561769548886
v 0.031250000000000056 -0.2559794286307045 -0.016814382304511145
v -0.031249999999999944 -0.24402057136929547 -0.04568561769548886
v -0.031249999999999944 -0.25597942863070455 -0.016814382304511145
vt 0.25 0.875
vt 0.125 0.875
vt 0.125 0.8125
vt 0.25 0.8125
vt 0.25 0.875
vt 0.25 0.875
vt 0.25 0.8125
vt 0.25 0.8125
vt 0.375 0.875
vt 0.25 0.875
vt 0.25 0.8125
vt 0.375 0.8125
vt 0.125 0.875
vt 0.125 0.875
vt 0.125 0.8125
vt 0.125 0.8125
vt 0.125 0.875
vt 0.25 0.875
vt 0.25 0.875
vt 0.125 0.875
vt 0.25 0.875
vt 0.375 0.875
vt 0.375 0.875
vt 0.25 0.875
vn -8.497279155086129e-17 0.3826834323650897 -0.9238795325112867
vn 2.0514246579479128e-16 -0.9238795325112867 -0.3826834323650897
vn 8.497279155086129e-17 -0.3826834323650897 0.9238795325112867
vn -2.0514246579479128e-16 0.9238795325112867 0.3826834323650897
vn 1 2.220446049250313e-16 0
vn -1 -2.220446049250313e-16 0
usemtl none
f 20/52/13 23/51/13 21/50/13 18/49/13
f 19/56/14 20/55/14 18/54/14 17/53/14
f 24/60/15 19/59/15 17/58/15 22/57/15
f 23/64/16 24/63/16 22/62/16 21/61/16
f 22/68/17 17/67/17 18/66/17 21/65/17
f 23/72/18 20/71/18 19/70/18 24/69/18
o cube
v 0.03125000000000008 -0.3595055129332063 0.031021046741125075
v 0.03125000000000008 -0.37146437019461537 0.002149811350147357
v -0.03124999999999992 -0.3595055129332063 0.031021046741125075
v -0.03124999999999992 -0.37146437019461537 0.002149811350147357
v 0.031250000000000056 -0.2559794286307045 -0.04568561769548886
v 0.031250000000000056 -0.24402057136929547 -0.016814382304511145
v -0.031249999999999944 -0.25597942863070455 -0.04568561769548886
v -0.031249999999999944 -0.24402057136929547 -0.016814382304511145
vt 0.25 0.875
vt 0.125 0.875
vt 0.125 0.8125
vt 0.25 0.8125
vt 0.25 0.875
vt 0.25 0.875
vt 0.25 0.8125
vt 0.25 0.8125
vt 0.375 0.875
vt 0.25 0.875
vt 0.25 0.8125
vt 0.375 0.8125
vt 0.125 0.875
vt 0.125 0.875
vt 0.125 0.8125
vt 0.125 0.8125
vt 0.125 0.875
vt 0.25 0.875
vt 0.25 0.875
vt 0.125 0.875
vt 0.25 0.875
vt 0.375 0.875
vt 0.375 0.875
vt 0.25 0.875
vn 8.497279155086129e-17 -0.3826834323650897 -0.9238795325112867
vn 2.0514246579479128e-16 -0.9238795325112867 0.3826834323650897
vn -8.497279155086129e-17 0.3826834323650897 0.9238795325112867
vn -2.0514246579479128e-16 0.9238795325112867 -0.3826834323650897
vn 1 2.220446049250313e-16 0
vn -1 -2.220446049250313e-16 0
usemtl none
f 28/76/19 31/75/19 29/74/19 26/73/19
f 27/80/20 28/79/20 26/78/20 25/77/20
f 32/84/21 27/83/21 25/82/21 30/81/21
f 31/88/22 32/87/22 30/86/22 29/85/22
f 30/92/23 25/91/23 26/90/23 29/89/23
f 31/96/24 28/95/24 27/94/24 32/93/24
o cube
v 0.031249999999999944 0.24402057136929547 -0.016814382304511145
v 0.031249999999999944 0.25597942863070455 -0.04568561769548886
v -0.031250000000000056 0.24402057136929547 -0.016814382304511145
v -0.031250000000000056 0.2559794286307045 -0.04568561769548886
v 0.03124999999999992 0.37146437019461537 0.002149811350147357
v 0.03124999999999992 0.3595055129332063 0.031021046741125075
v -0.03125000000000008 0.37146437019461537 0.002149811350147357
v -0.03125000000000008 0.3595055129332063 0.031021046741125075
vt 0.125 0.875
vt 0.25 0.875
vt 0.25 0.8125
vt 0.125 0.8125
vt 0.125 0.875
vt 0.125 0.875
vt 0.125 0.8125
vt 0.125 0.8125
vt 0.25 0.875
vt 0.375 0.875
vt 0.375 0.8125
vt 0.25 0.8125
vt 0.25 0.875
vt 0.25 0.875
vt 0.25 0.8125
vt 0.25 0.8125
vt 0.25 0.875
vt 0.125 0.875
vt 0.125 0.875
vt 0.25 0.875
vt 0.375 0.875
vt 0.25 0.875
vt 0.25 0.875
vt 0.375 0.875
vn -8.497279155086129e-17 0.3826834323650897 -0.9238795325112867
vn 2.0514246579479128e-16 -0.9238795325112867 -0.3826834323650897
vn 8.497279155086129e-17 -0.3826834323650897 0.9238795325112867
vn -2.0514246579479128e-16 0.9238795325112867 0.3826834323650897
vn 1 2.220446049250313e-16 0
vn -1 -2.220446049250313e-16 0
usemtl none
f 36/100/25 39/99/25 37/98/25 34/97/25
f 35/104/26 36/103/26 34/102/26 33/101/26
f 40/108/27 35/107/27 33/106/27 38/105/27
f 39/112/28 40/111/28 38/110/28 37/109/28
f 38/116/29 33/115/29 34/114/29 37/113/29
f 39/120/30 36/119/30 35/118/30 40/117/30
o cube
v 0.031249999999999944 0.25597942863070455 -0.016814382304511145
v 0.031249999999999944 0.24402057136929547 -0.04568561769548886
v -0.031250000000000056 0.2559794286307045 -0.016814382304511145
v -0.031250000000000056 0.24402057136929547 -0.04568561769548886
v 0.03124999999999992 0.3595055129332063 -0.09352104674112507
v 0.03124999999999992 0.37146437019461537 -0.06464981135014736
v -0.03125000000000008 0.3595055129332063 -0.09352104674112507
v -0.03125000000000008 0.37146437019461537 -0.06464981135014736
vt 0.125 0.875
vt 0.25 0.875
vt 0.25 0.8125
vt 0.125 0.8125
vt 0.125 0.875
vt 0.125 0.875
vt 0.125 0.8125
vt 0.125 0.8125
vt 0.25 0.875
vt 0.375 0.875
vt 0.375 0.8125
vt 0.25 0.8125
vt 0.25 0.875
vt 0.25 0.875
vt 0.25 0.8125
vt 0.25 0.8125
vt 0.25 0.875
vt 0.125 0.875
vt 0.125 0.875
vt 0.25 0.875
vt 0.375 0.875
vt 0.25 0.875
vt 0.25 0.875
vt 0.375 0.875
vn 8.497279155086129e-17 -0.3826834323650897 -0.9238795325112867
vn 2.0514246579479128e-16 -0.9238795325112867 0.3826834323650897
vn -8.497279155086129e-17 0.3826834323650897 0.9238795325112867
vn -2.0514246579479128e-16 0.9238795325112867 -0.3826834323650897
vn 1 2.220446049250313e-16 0
vn -1 -2.220446049250313e-16 0
usemtl none
f 44/124/31 47/123/31 45/122/31 42/121/31
f 43/128/32 44/127/32 42/126/32 41/125/32
f 48/132/33 43/131/33 41/130/33 46/129/33
f 47/136/34 48/135/34 46/134/34 45/133/34
f 46/140/35 41/139/35 42/138/35 45/137/35
f 47/144/36 44/143/36 43/142/36 48/141/36
o cube
v 0.015625000000000007 -0.031249999999999997 0.125
v 0.015625000000000007 -0.031249999999999997 -0.25
v -0.015624999999999993 -0.03125 0.125
v -0.015624999999999993 -0.03125 -0.25
v 0.015624999999999993 0.03125 -0.25
v 0.015624999999999993 0.03125 0.125
v -0.015625000000000007 0.031249999999999997 -0.25
v -0.015625000000000007 0.031249999999999997 0.125
vt 0.125 0.875
vt 0.1875 0.875
vt 0.1875 0.875
vt 0.125 0.875
vt -0.25 0.875
vt 0.125 0.875
vt 0.125 0.875
vt -0.25 0.875
vt 0.5625 0.875
vt 0.625 0.875
vt 0.625 0.875
vt 0.5625 0.875
vt 0.1875 0.875
vt 0.5625 0.875
vt 0.5625 0.875
vt 0.1875 0.875
vt 0.1875 0.875
vt 0.125 0.875
vt 0.125 1.25
vt 0.1875 1.25
vt 0.25 1.25
vt 0.1875 1.25
vt 0.1875 0.875
vt 0.25 0.875
vn 0 0 -1
vn 2.220446049250313e-16 -1 0
vn 0 0 1
vn -2.220446049250313e-16 1 0
vn 1 2.220446049250313e-16 0
vn -1 -2.220446049250313e-16 0
usemtl none
f 52/148/37 55/147/37 53/146/37 50/145/37
f 51/152/38 52/151/38 50/150/38 49/149/38
f 56/156/39 51/155/39 49/154/39 54/153/39
f 55/160/40 56/159/40 54/158/40 53/157/40
f 54/164/41 49/163/41 50/162/41 53/161/41
f 55/168/42 52/167/42 51/166/42 56/165/42
o cube
v 0.03125000000000001 -0.04419417382415921 0.13415291308792038
v 0.03125 1.3877787807814457e-17 0.08995873926376116
v -0.03124999999999999 -0.04419417382415922 0.13415291308792038
v -0.03125 0 0.08995873926376116
v 0.03124999999999999 0.04419417382415923 0.13415291308792038
v 0.03125 5.204170427930421e-18 0.17834708691207962
v -0.03125000000000001 0.044194173824159216 0.13415291308792038
v -0.031249999999999997 -8.673617379884035e-18 0.17834708691207962
vt 0.125 0.875
vt 0.1875 0.875
vt 0.1875 0.8125
vt 0.125 0.8125
vt 0.0625 0.875
vt 0.125 0.875
vt 0.125 0.8125
vt 0.0625 0.8125
vt 0.25 0.875
vt 0.3125 0.875
vt 0.3125 0.8125
vt 0.25 0.8125
vt 0.1875 0.875
vt 0.25 0.875
vt 0.25 0.8125
vt 0.1875 0.8125
vt 0.1875 0.875
vt 0.125 0.875
vt 0.125 0.9375
vt 0.1875 0.9375
vt 0.25 0.9375
vt 0.1875 0.9375
vt 0.1875 0.875
vt 0.25 0.875
vn -1.5700924586837752e-16 0.7071067811865476 -0.7071067811865475
vn 1.570092458683775e-16 -0.7071067811865475 -0.7071067811865476
vn 1.5700924586837752e-16 -0.7071067811865476 0.7071067811865475
vn -1.570092458683775e-16 0.7071067811865475 0.7071067811865476
vn 1 2.220446049250313e-16 0
vn -1 -2.220446049250313e-16 0
usemtl none
f 60/172/43 63/171/43 61/170/43 58/169/43
f 59/176/44 60/175/44 58/174/44 57/173/44
f 64/180/45 59/179/45 57/178/45 62/177/45
f 63/184/46 64/183/46 62/182/46 61/181/46
f 62/188/47 57/187/47 58/186/47 61/185/47
f 63/192/48 60/191/48 59/190/48 64/189/48
o cube
v 0.04687500000000002 -0.08838834764831854 -0.5091529130879203
v 0.046875 -9.367506770274758e-17 -0.5975412607362388
v -0.04687499999999998 -0.08838834764831857 -0.5091529130879203
v -0.046875 -1.1449174941446927e-16 -0.5975412607362388
v 0.04687499999999998 0.08838834764831834 -0.5091529130879203
v 0.046875 -1.0755285551056204e-16 -0.4207645654396019
v -0.04687500000000002 0.08838834764831831 -0.5091529130879203
v -0.046875 -1.3530843112619095e-16 -0.4207645654396019
vt 0.125 0.875
vt 0.25 0.875
vt 0.25 0.8125
vt 0.125 0.8125
vt 0 0.875
vt 0.125 0.875
vt 0.125 0.8125
vt 0 0.8125
vt 0.375 0.875
vt 0.5 0.875
vt 0.5 0.8125
vt 0.375 0.8125
vt 0.25 0.875
vt 0.375 0.875
vt 0.375 0.8125
vt 0.25 0.8125
vt 0.25 0.875
vt 0.125 0.875
vt 0.125 1
vt 0.25 1
vt 0.375 1
vt 0.25 1
vt 0.25 0.875
vt 0.375 0.875
vn -1.5700924586837752e-16 0.7071067811865476 -0.7071067811865475
vn 1.570092458683775e-16 -0.7071067811865475 -0.7071067811865476
vn 1.5700924586837752e-16 -0.7071067811865476 0.7071067811865475
vn -1.570092458683775e-16 0.7071067811865475 0.7071067811865476
vn 1 2.220446049250313e-16 0
vn -1 -2.220446049250313e-16 0
usemtl none
f 68/196/49 71/195/49 69/194/49 66/193/49
f 67/200/50 68/199/50 66/198/50 65/197/50
f 72/204/51 67/203/51 65/202/51 70/201/51
f 71/208/52 72/207/52 70/206/52 69/205/52
f 70/212/53 65/211/53 66/210/53 69/209/53
f 71/216/54 68/215/54 67/214/54 72/213/54
o cube
v 0.015625000000000024 -0.11048543456039817 -0.53125
v 0.015625 -1.0061396160665481e-16 -0.641735434560398
v -0.015624999999999976 -0.11048543456039817 -0.53125
v -0.015625 -1.0061396160665481e-16 -0.641735434560398
v 0.015624999999999976 0.11048543456039794 -0.53125
v 0.015625 -1.214306433183765e-16 -0.4207645654396019
v -0.015625000000000024 0.11048543456039794 -0.53125
v -0.015625 -1.214306433183765e-16 -0.4207645654396019
vt 0.125 0.875
vt 0.25 0.875
vt 0.25 0.875
vt 0.125 0.875
vt 0 0.875
vt 0.125 0.875
vt 0.125 0.875
vt 0 0.875
vt 0.375 0.875
vt 0.5 0.875
vt 0.5 0.875
vt 0.375 0.875
vt 0.25 0.875
vt 0.375 0.875
vt 0.375 0.875
vt 0.25 0.875
vt 0.25 0.875
vt 0.125 0.875
vt 0.125 1
vt 0.25 1
vt 0.375 1
vt 0.25 1
vt 0.25 0.875
vt 0.375 0.875
vn -1.5700924586837752e-16 0.7071067811865476 -0.7071067811865475
vn 1.570092458683775e-16 -0.7071067811865475 -0.7071067811865476
vn 1.5700924586837752e-16 -0.7071067811865476 0.7071067811865475
vn -1.570092458683775e-16 0.7071067811865475 0.7071067811865476
vn 1 2.220446049250313e-16 0
vn -1 -2.220446049250313e-16 0
usemtl none
f 76/220/55 79/219/55 77/218/55 74/217/55
f 75/224/56 76/223/56 74/222/56 73/221/56
f 80/228/57 75/227/57 73/226/57 78/225/57
f 79/232/58 80/231/58 78/230/58 77/229/58
f 78/236/59 73/235/59 74/234/59 77/233/59
f 79/240/60 76/239/60 75/238/60 80/237/60
o cube
v 0.0625000000000001 0.23777922787095607 -0.12222925209074759
v 0.06250000000000001 0.07035522621122947 -0.5264265475644356
v 0.06250000000000001 0.06455181552508973 -0.05047610852229334
v 0.06249999999999993 -0.10287218613463685 -0.4546734039959814
v -0.06250000000000001 0.07035522621122953 -0.5264265475644356
v -0.06249999999999992 0.23777922787095612 -0.12222925209074759
v -0.0625000000000001 -0.10287218613463679 -0.4546734039959814
v -0.06250000000000001 0.06455181552508979 -0.05047610852229334
vt 0.125 0.875
vt 0.25 0.875
vt 0.25 0.6875
vt 0.125 0.6875
vt -0.3125 0.875
vt 0.125 0.875
vt 0.125 0.6875
vt -0.3125 0.6875
vt 0.6875 0.875
vt 0.8125 0.875
vt 0.8125 0.6875
vt 0.6875 0.6875
vt 0.25 0.875
vt 0.6875 0.875
vt 0.6875 0.6875
vt 0.25 0.6875
vt 0.25 0.875
vt 0.125 0.875
vt 0.125 1.3125
vt 0.25 1.3125
vt 0.375 1.3125
vt 0.25 1.3125
vt 0.25 0.875
vt 0.375 0.875
vn -1.6994558310172238e-16 -0.38268343236508945 -0.9238795325112871
vn 1 -5.102203808417768e-16 -2.7152515815254482e-17
vn 1.6994558310172238e-16 0.38268343236508945 0.9238795325112871
vn -1 5.102203808417768e-16 2.7152515815254482e-17
vn 4.102849315895825e-16 0.923879532511287 -0.3826834323650894
vn -4.102849315895825e-16 -0.923879532511287 0.3826834323650894
usemtl none
f 84/244/61 87/243/61 85/242/61 82/241/61
f 83/248/62 84/247/62 82/246/62 81/245/62
f 88/252/63 83/251/63 81/250/63 86/249/63
f 87/256/64 88/255/64 86/254/64 85/253/64
f 86/260/65 81/259/65 82/258/65 85/257/65
f 87/264/66 84/263/66 83/262/66 88/261/66
o cube
v 0.015625000000000135 0.2666504632619338 -0.13418810935215664
v 0.015625000000000038 0.09922646160220724 -0.5383854048258447
v 0.01562500000000012 0.23777922787095612 -0.12222925209074757
v 0.015625000000000024 0.07035522621122953 -0.5264265475644356
v -0.015624999999999967 0.09922646160220724 -0.5383854048258447
v -0.015624999999999872 0.2666504632619338 -0.13418810935215664
v -0.015624999999999983 0.07035522621122953 -0.5264265475644356
v -0.015624999999999887 0.23777922787095612 -0.12222925209074757
vt 0.125 0.875
vt 0.125 0.875
vt 0.125 0.875
vt 0.125 0.875
vt -0.3125 0.875
vt 0.125 0.875
vt 0.125 0.875
vt -0.3125 0.875
vt 0.5625 0.875
vt 0.5625 0.875
vt 0.5625 0.875
vt 0.5625 0.875
vt 0.125 0.875
vt 0.5625 0.875
vt 0.5625 0.875
vt 0.125 0.875
vt 0.125 0.875
vt 0.125 0.875
vt 0.125 1.3125
vt 0.125 1.3125
vt 0.125 1.3125
vt 0.125 1.3125
vt 0.125 0.875
vt 0.125 0.875
vn -1.6994558310172238e-16 -0.38268343236508945 -0.9238795325112871
vn 1 -5.102203808417768e-16 -2.7152515815254482e-17
vn 1.6994558310172238e-16 0.38268343236508945 0.9238795325112871
vn -1 5.102203808417768e-16 2.7152515815254482e-17
vn 4.102849315895825e-16 0.923879532511287 -0.3826834323650894
vn -4.102849315895825e-16 -0.923879532511287 0.3826834323650894
usemtl none
f 92/268/67 95/267/67 93/266/67 90/265/67
f 91/272/68 92/271/68 90/270/68 89/269/68
f 96/276/69 91/275/69 89/274/69 94/273/69
f 95/280/70 96/279/70 94/278/70 93/277/70
f 94/284/71 89/283/71 90/282/71 93/281/71
f 95/288/72 92/287/72 91/286/72 96/285/72
o cube
v -0.015624999999999754 -0.2666504632619338 -0.13418810935215664
v -0.015624999999999924 -0.09922646160220724 -0.5383854048258447
v -0.015624999999999781 -0.23777922787095612 -0.12222925209074757
v -0.015624999999999951 -0.07035522621122955 -0.5264265475644356
v 0.015625000000000083 -0.09922646160220724 -0.5383854048258447
v 0.015625000000000257 -0.2666504632619338 -0.13418810935215664
v 0.015625000000000056 -0.0703552262112295 -0.5264265475644356
v 0.01562500000000023 -0.23777922787095607 -0.12222925209074757
vt 0.125 0.875
vt 0.125 0.875
vt 0.125 0.875
vt 0.125 0.875
vt 0.5625 0.875
vt 0.125 0.875
vt 0.125 0.875
vt 0.5625 0.875
vt 0.5625 0.875
vt 0.5625 0.875
vt 0.5625 0.875
vt 0.5625 0.875
vt 0.125 0.875
vt -0.3125 0.875
vt -0.3125 0.875
vt 0.125 0.875
vt 0.125 0.875
vt 0.125 0.875
vt 0.125 1.3125
vt 0.125 1.3125
vt 0.125 1.3125
vt 0.125 1.3125
vt 0.125 0.875
vt 0.125 0.875
vn -3.398911662034448e-16 0.38268343236508945 -0.9238795325112871
vn -1 -9.543095906918393e-16 2.7152515815254507e-17
vn 3.398911662034448e-16 -0.38268343236508945 0.9238795325112871
vn 1 9.543095906918393e-16 -2.7152515815254507e-17
vn 8.205698631791651e-16 -0.923879532511287 -0.3826834323650894
vn -8.205698631791651e-16 0.923879532511287 0.3826834323650894
usemtl none
f 100/292/73 103/291/73 101/290/73 98/289/73
f 99/296/74 100/295/74 98/294/74 97/293/74
f 104/300/75 99/299/75 97/298/75 102/297/75
f 103/304/76 104/303/76 102/302/76 101/301/76
f 102/308/77 97/307/77 98/306/77 101/305/77
f 103/312/78 100/311/78 99/310/78 104/309/78
o cube
v 0.062499999999999965 -0.06455181552508979 -0.05047610852229331
v 0.06250000000000006 0.10287218613463679 -0.45467340399598133
v 0.06249999999999988 -0.23777922787095612 -0.12222925209074757
v 0.06249999999999998 -0.07035522621122955 -0.5264265475644356
v -0.062499999999999965 0.10287218613463685 -0.45467340399598133
v -0.06250000000000006 -0.06455181552508973 -0.05047610852229331
v -0.06250000000000006 -0.0703552262112295 -0.5264265475644356
v -0.06250000000000014 -0.23777922787095607 -0.12222925209074757
vt 0.125 0.875
vt 0.25 0.875
vt 0.25 0.6875
vt 0.125 0.6875
vt -0.3125 0.875
vt 0.125 0.875
vt 0.125 0.6875
vt -0.3125 0.6875
vt 0.6875 0.875
vt 0.8125 0.875
vt 0.8125 0.6875
vt 0.6875 0.6875
vt 0.25 0.875
vt 0.6875 0.875
vt 0.6875 0.6875
vt 0.25 0.6875
vt 0.25 0.875
vt 0.125 0.875
vt 0.125 1.3125
vt 0.25 1.3125
vt 0.375 1.3125
vt 0.25 1.3125
vt 0.25 0.875
vt 0.375 0.875
vn 1.6994558310172238e-16 0.38268343236508945 -0.9238795325112871
vn 1 -5.102203808417768e-16 2.7152515815254482e-17
vn -1.6994558310172238e-16 -0.38268343236508945 0.9238795325112871
vn -1 5.102203808417768e-16 -2.7152515815254482e-17
vn 4.102849315895825e-16 0.923879532511287 0.3826834323650894
vn -4.102849315895825e-16 -0.923879532511287 -0.3826834323650894
usemtl none
f 108/316/79 111/315/79 109/314/79 106/313/79
f 107/320/80 108/319/80 106/318/80 105/317/80
f 112/324/81 107/323/81 105/322/81 110/321/81
f 111/328/82 112/327/82 110/326/82 109/325/82
f 110/332/83 105/331/83 106/330/83 109/329/83
f 111/336/84 108/335/84 107/334/84 112/333/84